<?xml version="1.0" encoding="UTF-8"?>
<svg width="180px" height="180px" viewBox="0 0 180 180" version="1.1" xmlns="http://www.w3.org/2000/svg" xmlns:xlink="http://www.w3.org/1999/xlink">
    <!-- Generator: Sketch 43.2 (39069) - http://www.bohemiancoding.com/sketch -->
    <title>180 - iPhone 6 Plus Copy 2</title>
    <desc>Created with Sketch.</desc>
    <defs>
        <path d="M29,40.9957907 C29,39.8935459 29.8886575,39 31.0021032,39 L148.171944,39 C149.277675,39 150.174047,39.8923977 150.174047,41.009649 L150.174047,129.165303 L125.067658,152.600669 L31.0065096,152.600669 C29.8983449,152.600669 29,151.702799 29,150.604878 L29,40.9957907 Z" id="path-1"></path>
    </defs>
    <g id="Page-1" stroke="none" stroke-width="1" fill="none" fill-rule="evenodd">
        <g id="180---iPhone-6-Plus-Copy-2">
            <g id="Rectangle-2">
                <use fill="#FFFFFF" fill-rule="evenodd" xlink:href="#path-1"></use>
                <path stroke="#8E8E93" stroke-width="5" d="M31.5,41.5 L147.674047,41.5 L147.674047,128.079008 L124.082166,150.100669 L31.5,150.100669 L31.5,41.5 Z"></path>
            </g>
            <g id="Group" transform="translate(51.000000, 30.000000)" fill="#8E8E93">
                <path d="M8.42239989,4.58465538 C8.42239989,2.49257119 6.72750132,0.796601856 4.63571092,0.796601856 L4.63571092,0.796601856 C2.54438035,0.796601856 0.849021954,2.49162924 0.849021954,4.58465538 L0.849021954,18.2140065 C0.849021954,20.3060907 2.54392053,22.0020601 4.63571092,22.0020601 L4.63571092,22.0020601 C6.72704149,22.0020601 8.42239989,20.3070327 8.42239989,18.2140065" id="Rectangle-4"></path>
                <path d="M30.9910661,4.58465538 C30.9910661,2.49257119 29.2961676,0.796601856 27.2043772,0.796601856 L27.2043772,0.796601856 C25.1130466,0.796601856 23.4176882,2.49162924 23.4176882,4.58465538 L23.4176882,18.2140065 C23.4176882,20.3060907 25.1125868,22.0020601 27.2043772,22.0020601 L27.2043772,22.0020601 C29.2957077,22.0020601 30.9910661,20.3070327 30.9910661,18.2140065" id="Rectangle-4-Copy"></path>
                <path d="M53.5597324,4.58465538 C53.5597324,2.49257119 51.8648338,0.796601856 49.7730434,0.796601856 L49.7730434,0.796601856 C47.6817128,0.796601856 45.9863545,2.49162924 45.9863545,4.58465538 L45.9863545,18.2140065 C45.9863545,20.3060907 47.681253,22.0020601 49.7730434,22.0020601 L49.7730434,22.0020601 C51.864374,22.0020601 53.5597324,20.3070327 53.5597324,18.2140065" id="Rectangle-4-Copy-2"></path>
                <path d="M75.9769311,4.58465538 C75.9769311,2.49257119 74.2820325,0.796601856 72.1902421,0.796601856 L72.1902421,0.796601856 C70.0989115,0.796601856 68.4035531,2.49162924 68.4035531,4.58465538 L68.4035531,18.2140065 C68.4035531,20.3060907 70.0984517,22.0020601 72.1902421,22.0020601 L72.1902421,22.0020601 C74.2815727,22.0020601 75.9769311,20.3070327 75.9769311,18.2140065" id="Rectangle-4-Copy-3"></path>
            </g>
            <path d="M49.5,73.5 L129.5,73.5" id="Line" stroke="#979797" stroke-width="5" stroke-linecap="square"></path>
            <path d="M49.5,90.5 L129.5,90.5" id="Line-Copy" stroke="#979797" stroke-width="5" stroke-linecap="square"></path>
            <path d="M49.5,107.5 L129.5,107.5" id="Line-Copy-2" stroke="#979797" stroke-width="5" stroke-linecap="square"></path>
            <polyline id="Path-4" stroke="#8E8E93" stroke-width="5" points="124 150 124 126.494681 149 126.494681"></polyline>
        </g>
    </g>
</svg>